<svg id="visual" viewBox="0 0 900 600" width="900" height="600" xmlns="http://www.w3.org/2000/svg" xmlns:xlink="http://www.w3.org/1999/xlink" version="1.1"><path d="M0 397L21.5 395C43 393 86 389 128.8 399.5C171.7 410 214.3 435 257.2 439C300 443 343 426 385.8 435.2C428.7 444.3 471.3 479.7 514.2 475.8C557 472 600 429 642.8 416.5C685.7 404 728.3 422 771.2 427C814 432 857 424 878.5 420L900 416L900 601L878.5 601C857 601 814 601 771.2 601C728.3 601 685.7 601 642.8 601C600 601 557 601 514.2 601C471.3 601 428.7 601 385.8 601C343 601 300 601 257.2 601C214.3 601 171.7 601 128.8 601C86 601 43 601 21.5 601L0 601Z" fill="#0066FF" stroke-linecap="round" stroke-linejoin="miter"></path></svg>